<svg xmlns="http://www.w3.org/2000/svg" fill="none" viewBox="0 0 400 400">
  <style>
  @media (prefers-color-scheme: dark) {
    :root {
      --bg-color: #000;
      --fg-color: #fff;
    }
  }
  @media (prefers-color-scheme: light) {
    :root {
      --bg-color: #fff;
      --fg-color: #000;
    }
  }
  </style>
  <path fill="var(--bg-color)" d="M0 0h400v400H0z"/><path fill="var(--fg-color)" d="M260.91 230.95h-.67v40.02a16.7 16.7 0 0 1-16.7 16.65h-19.86a16.7 16.7 0 0 1-16.69-16.65V151.34a39.74 39.74 0 0 1 39.73-39.66h99.7c9.87 0 17.9 8 17.9 17.86v17.43a17.9 17.9 0 0 1-17.9 17.87h-86.18v12.96h76.72c9.87 0 17.9 8 17.9 17.86v17.42a17.9 17.9 0 0 1-17.9 17.87H260.9Zm97.47-83.98v-17.43c0-6.57-5.38-11.93-11.98-11.93h-99.7a33.8 33.8 0 0 0-33.79 33.73v119.62c0 5.92 4.83 10.73 10.76 10.73h19.87c5.94 0 10.76-4.81 10.76-10.73V231.1a6.09 6.09 0 0 1 6.08-6.08h76.57c6.6 0 11.97-5.35 11.97-11.94v-17.42c0-6.57-5.38-11.93-11.97-11.93H254.3V158.9h92.12c6.59 0 11.96-5.35 11.96-11.94Z"/><path fill="var(--fg-color)" d="M247.94 121.12h97.5v.01a9.4 9.4 0 0 1 9.4 9.39v15.5a9.4 9.4 0 0 1-9.4 9.38h-94.69v31.87h85.23a9.4 9.4 0 0 1 9.4 9.38v15.5a9.4 9.4 0 0 1-9.4 9.38h-76.66a8.56 8.56 0 0 0-8.55 8.55v41.15a6.99 6.99 0 0 1-6.99 6.98h-20.33c-3.88-.05-7-3.2-7-7V152.55a31.5 31.5 0 0 1 31.49-31.44Zm100.92 25.56h.09v-16.17c0-1.9-1.56-3.46-3.47-3.46h-97.52a25.56 25.56 0 0 0-25.56 25.5v118.62c0 .64.55 1.09 1.12 1.09h20.28c.59 0 1.06-.47 1.06-1.06v-41.15a14.5 14.5 0 0 1 14.48-14.47H336a3.46 3.46 0 0 0 3.47-3.45v-15.5c0-1.9-1.56-3.46-3.47-3.46h-86a5.17 5.17 0 0 1-5.16-5.15v-33.4a5.17 5.17 0 0 1 5.16-5.16h95.46a3.46 3.46 0 0 0 3.4-2.78Z"/><path fill="var(--fg-color)" d="M341.06 130.57h.3a4.32 4.32 0 0 1 4 4.3v6.75a4.32 4.32 0 0 1-4.3 4.31h-91.4a8.36 8.36 0 0 0-8.37 8.35v34.8c0 4.2 3.42 7.6 7.62 7.6h82.67a4.32 4.32 0 0 1 4.32 4.32v6.74a4.32 4.32 0 0 1-4.32 4.32h-72.87c-9.6 0-17.42 7.8-17.42 17.38v34.98a4.32 4.32 0 0 1-4.31 4.31h-6.76a4.32 4.32 0 0 1-4.31-4.31V153.06c0-12.4 10.1-22.49 22.51-22.49h92.64ZM330 203.3v-.68h-81.08a13.55 13.55 0 0 1-13.55-13.53v-34.8c0-7.88 6.41-14.27 14.28-14.27h89.12v-.68h.68v-2.84h-91.03a16.59 16.59 0 0 0-16.59 16.56V262.8h3.54v-33.36a23.35 23.35 0 0 1 23.35-23.31h71.27v-2.83Z"/><path d="M134.26 167.68H96.4a3.64 3.64 0 1 0 0 7.27h37.85c29.29 0 53.12 23.79 53.12 53.03 0 29.24-23.83 53.03-53.12 53.03H52.5a9.21 9.21 0 0 1-9.22-9.18v-21.57a9.22 9.22 0 0 1 9.22-9.19h81.75a13.1 13.1 0 0 0 13.1-13.08 13.1 13.1 0 0 0-13.1-13.08H96.43a43.68 43.68 0 0 1-43.67-43.59 43.68 43.68 0 0 1 43.67-43.59h80.67c.46 0 .84.38.84.84v19.37c0 .46-.38.83-.84.83H96.4a22.56 22.56 0 0 0-22.56 22.53 22.57 22.57 0 0 0 22.54 22.53h37.88a34.21 34.21 0 0 1 34.2 34.14 34.2 34.2 0 0 1-34.2 34.14H62.2v-2.17h72.05a32.03 32.03 0 0 0 32.02-31.97 32.04 32.04 0 0 0-32.02-31.98H96.4a24.75 24.75 0 0 1-24.75-24.69 24.75 24.75 0 0 1 24.75-24.69h75.7a3.64 3.64 0 0 0 3.63-3.64v-9.44a3.64 3.64 0 0 0-3.64-3.64H96.4a41.5 41.5 0 0 0-41.48 41.42 41.5 41.5 0 0 0 41.45 41.42h37.89a15.3 15.3 0 0 1 15.28 15.25c0 8.4-6.86 15.24-15.28 15.24H53.6a8.14 8.14 0 0 0-8.13 8.12v19.37a8.14 8.14 0 0 0 8.13 8.12h80.67a50.96 50.96 0 0 0 50.94-50.86 50.96 50.96 0 0 0-50.95-50.87H96.42a5.82 5.82 0 0 1-5.82-5.8c0-3.2 2.6-5.8 5.82-5.8h81.76c9.1 0 16.5-7.39 16.5-16.47v-21.56a16.5 16.5 0 0 0-16.5-16.47H96.4C63.1 111 36 138.06 36 171.31s27.1 60.3 60.4 60.31h37.86a3.63 3.63 0 1 0 0-7.27H96.4c-29.3 0-53.13-23.79-53.13-53.03 0-29.24 23.84-53.03 53.13-53.03h81.76a9.21 9.21 0 0 1 9.21 9.2v21.55a9.2 9.2 0 0 1-9.21 9.19H96.39a13.1 13.1 0 0 0-13.08 13.08c0 7.2 5.85 13.04 13.03 13.09h37.92a43.68 43.68 0 0 1 43.66 43.58 43.68 43.68 0 0 1-43.66 43.58H53.6a.85.85 0 0 1-.85-.84v-19.37c0-.46.38-.83.85-.83h80.7a22.56 22.56 0 0 0 22.52-22.53 22.57 22.57 0 0 0-22.56-22.53H96.42a34.22 34.22 0 0 1-34.21-34.14 34.2 34.2 0 0 1 34.2-34.13h72.06v2.16H96.4a32.04 32.04 0 0 0-32.03 31.97 32.03 32.03 0 0 0 31.99 31.98h37.89A24.75 24.75 0 0 1 159 227.99a24.75 24.75 0 0 1-24.74 24.69H58.57a3.64 3.64 0 0 0-3.64 3.64v9.44a3.64 3.64 0 0 0 3.64 3.64h75.69a41.5 41.5 0 0 0 41.48-41.42 41.5 41.5 0 0 0-41.48-41.42H96.4a15.28 15.28 0 0 1-15.29-15.25c0-8.4 6.86-15.24 15.29-15.24h80.67a8.14 8.14 0 0 0 8.13-8.12v-19.38a8.14 8.14 0 0 0-8.13-8.12H96.4a50.96 50.96 0 0 0-50.94 50.86 50.95 50.95 0 0 0 50.9 50.87h37.89a5.81 5.81 0 1 1 0 11.6H52.5A16.5 16.5 0 0 0 36 250.25v21.57a16.5 16.5 0 0 0 16.5 16.46h81.76c33.3 0 60.4-27.05 60.4-60.31 0-33.26-27.1-60.31-60.4-60.31v.02Z"/><path fill="var(--fg-color)" d="M134.26 167.68H96.4a3.64 3.64 0 1 0 0 7.27h37.85c29.29 0 53.12 23.79 53.12 53.03 0 29.24-23.83 53.03-53.12 53.03H52.5a9.21 9.21 0 0 1-9.22-9.18v-21.57a9.22 9.22 0 0 1 9.22-9.19h81.75a13.1 13.1 0 0 0 13.1-13.08 13.1 13.1 0 0 0-13.1-13.08H96.43a43.68 43.68 0 0 1-43.67-43.59 43.68 43.68 0 0 1 43.67-43.59h80.67c.46 0 .84.38.84.84v19.37c0 .46-.38.83-.84.83H96.4a22.56 22.56 0 0 0-22.56 22.53 22.57 22.57 0 0 0 22.54 22.53h37.88a34.21 34.21 0 0 1 34.2 34.14 34.2 34.2 0 0 1-34.2 34.14H62.2v-2.17h72.05a32.03 32.03 0 0 0 32.02-31.97 32.04 32.04 0 0 0-32.02-31.98H96.4a24.75 24.75 0 0 1-24.75-24.69 24.75 24.75 0 0 1 24.75-24.69h75.7a3.64 3.64 0 0 0 3.63-3.64v-9.44a3.64 3.64 0 0 0-3.64-3.64H96.4a41.5 41.5 0 0 0-41.48 41.42 41.5 41.5 0 0 0 41.45 41.42h37.89a15.3 15.3 0 0 1 15.28 15.25c0 8.4-6.86 15.24-15.28 15.24H53.6a8.14 8.14 0 0 0-8.13 8.12v19.37a8.14 8.14 0 0 0 8.13 8.12h80.67a50.96 50.96 0 0 0 50.94-50.86 50.96 50.96 0 0 0-50.95-50.87H96.42a5.82 5.82 0 0 1-5.82-5.8c0-3.2 2.6-5.8 5.82-5.8h81.76c9.1 0 16.5-7.39 16.5-16.47v-21.56a16.5 16.5 0 0 0-16.5-16.47H96.4C63.1 111 36 138.06 36 171.31s27.1 60.3 60.4 60.31h37.86a3.63 3.63 0 1 0 0-7.27H96.4c-29.3 0-53.13-23.79-53.13-53.03 0-29.24 23.84-53.03 53.13-53.03h81.76a9.21 9.21 0 0 1 9.21 9.2v21.55a9.2 9.2 0 0 1-9.21 9.19H96.39a13.1 13.1 0 0 0-13.08 13.08c0 7.2 5.85 13.04 13.03 13.09h37.92a43.68 43.68 0 0 1 43.66 43.58 43.68 43.68 0 0 1-43.66 43.58H53.6a.85.85 0 0 1-.85-.84v-19.37c0-.46.38-.83.85-.83h80.7a22.56 22.56 0 0 0 22.52-22.53 22.57 22.57 0 0 0-22.56-22.53H96.42a34.22 34.22 0 0 1-34.21-34.14 34.2 34.2 0 0 1 34.2-34.13h72.06v2.16H96.4a32.04 32.04 0 0 0-32.03 31.97 32.03 32.03 0 0 0 31.99 31.98h37.89A24.75 24.75 0 0 1 159 227.99a24.75 24.75 0 0 1-24.74 24.69H58.57a3.64 3.64 0 0 0-3.64 3.64v9.44a3.64 3.64 0 0 0 3.64 3.64h75.69a41.5 41.5 0 0 0 41.48-41.42 41.5 41.5 0 0 0-41.48-41.42H96.4a15.28 15.28 0 0 1-15.29-15.25c0-8.4 6.86-15.24 15.29-15.24h80.67a8.14 8.14 0 0 0 8.13-8.12v-19.38a8.14 8.14 0 0 0-8.13-8.12H96.4a50.96 50.96 0 0 0-50.94 50.86 50.95 50.95 0 0 0 50.9 50.87h37.89a5.81 5.81 0 1 1 0 11.6H52.5A16.5 16.5 0 0 0 36 250.25v21.57a16.5 16.5 0 0 0 16.5 16.46h81.76c33.3 0 60.4-27.05 60.4-60.31 0-33.26-27.1-60.31-60.4-60.31v.02Z"/></svg>