<svg width="510" height="141" viewBox="0 0 510 141" fill="none" xmlns="http://www.w3.org/2000/svg">
<mask id="path-1-inside-1_3656_10489" fill="white">
<path d="M268.493 140H0V72.877H201.37V67.123H0V0H268.493V140Z"/>
</mask>
<path d="M268.493 140H0V72.877H201.37V67.123H0V0H268.493V140Z" fill="currentColor"/>
<path d="M268.493 140V141H269.493V140H268.493ZM0 140H-1V141H0V140ZM0 72.877V71.877H-1V72.877H0ZM201.37 72.877V73.877H202.37V72.877H201.37ZM201.37 67.123H202.37V66.123H201.37V67.123ZM0 67.123H-1V68.123H0V67.123ZM0 0V-1H-1V0H0ZM268.493 0H269.493V-1H268.493V0ZM268.493 140V139H0V140V141H268.493V140ZM0 140H1V72.877H0H-1V140H0ZM0 72.877V73.877H201.37V72.877V71.877H0V72.877ZM201.37 72.877H202.37V67.123H201.37H200.37V72.877H201.37ZM201.37 67.123V66.123H0V67.123V68.123H201.37V67.123ZM0 67.123H1V0H0H-1V67.123H0ZM0 0V1H268.493V0V-1H0V0ZM268.493 0H267.493V140H268.493H269.493V0H268.493Z" fill="black" mask="url(#path-1-inside-1_3656_10489currentColor"/>
<path d="M442.612 66H438.84V0H442.612V10.4657L448.269 26.0229H452.323L458.074 10.3714V0H461.846V66H458.074V29.6057L452.323 45.1629H448.269L442.612 29.6057V66Z" fill="currentColor"/>
<path d="M431.222 66H421.982L417.174 55.6286V10.3714L421.982 0H431.222L436.031 10.3714V55.6286L431.222 66ZM420.945 45.2571L423.774 51.2914H429.431L432.259 45.2571V20.7429L429.431 14.7086H423.774L420.945 20.7429V45.2571Z" fill="currentColor"/>
<path d="M409.553 66H400.313L395.505 55.6286V10.3714L400.313 0H409.553L414.362 10.3714V55.6286L409.553 66ZM399.276 45.2571L402.105 51.2914H407.762L410.59 45.2571V20.7429L407.762 14.7086H402.105L399.276 20.7429V45.2571Z" fill="currentColor"/>
<path d="M377.976 66H374.205V0H387.028L392.685 9.24V33.5657L388.914 39.2229V39.9771L392.685 45.6343V66H388.914V50.3486L385.142 44.6914H377.976V66ZM377.976 14.8971V29.7943H385.142L388.914 24.1371V20.5543L385.142 14.8971H377.976Z" fill="currentColor"/>
<path d="M349.774 66H346.002V0H349.774V23.6657H355.054L365.614 0H370.422L356.939 30.1714L371.365 66H366.085L355.054 38.5629H349.774V66Z" fill="currentColor"/>
<path d="M328.474 66H324.703V0H337.525L343.183 9.24V33.5657L339.411 39.2229V39.9771L343.183 45.6343V66H339.411V50.3486L335.64 44.6914H328.474V66ZM328.474 14.8971V29.7943H335.64L339.411 24.1371V20.5543L335.64 14.8971H328.474Z" fill="currentColor"/>
<path d="M306.437 66H302.666V20.7429L310.209 0H314.263L321.9 20.7429V66H318.129V52.3286H306.437V66ZM306.437 29.2286V37.4314H318.129V29.2286L314.263 18.8571H310.209L306.437 29.2286Z" fill="currentColor"/>
<path d="M295.049 66H281V0H295.049L299.857 10.3714V55.6286L295.049 66ZM284.771 14.7086V51.2914H293.257L296.086 45.2571V20.7429L293.257 14.7086H284.771Z" fill="currentColor"/>
<path d="M504.882 140.156H495.621L490.801 129.76V84.3959L495.621 74H504.882L509.702 84.3959V94.7919H505.922L503.087 88.7433H497.416L494.581 94.7919V119.364L497.416 125.413H503.087L505.922 119.364V116.245H499.968V101.313H509.702V129.76L504.882 140.156Z" fill="currentColor"/>
<path d="M472.496 140.156H468.716V74H472.496V81.7497L484.215 106.322V74H487.995V140.156H484.215V130.705L472.496 106.133V140.156Z" fill="currentColor"/>
<path d="M465.879 140.156H451.609V125.413H456.901V88.7433H451.609V74H465.879V88.7433H460.681V125.413H465.879V140.156Z" fill="currentColor"/>
<path d="M434.04 140.156H430.26V74H443.113L448.783 83.2618V107.645L445.003 113.316V114.072L448.783 119.742V140.156H445.003V124.468L441.223 118.797H434.04V140.156ZM434.04 88.9323V103.865H441.223L445.003 98.1942V94.6028L441.223 88.9323H434.04Z" fill="currentColor"/>
<path d="M427.454 140.156H408.174V74H426.603V88.7433H411.954V98.8557H423.295V113.599H411.954V125.413H427.454V140.156Z" fill="currentColor"/>
<path d="M405.365 140.156H386.085V74H404.514V88.7433H389.865V98.8557H401.206V113.599H389.865V125.413H405.365V140.156Z" fill="currentColor"/>
<path d="M367.78 140.156H364V74H367.78V81.7497L379.499 106.322V74H383.279V140.156H379.499V130.705L367.78 106.133V140.156Z" fill="currentColor"/>
<path d="M361.163 140.156H346.893V125.413H352.185V88.7433H346.893V74H361.163V88.7433H355.965V125.413H361.163V140.156Z" fill="currentColor"/>
<path d="M339.257 140.156H329.995L325.175 129.76V84.3959L329.995 74H339.257L344.076 84.3959V94.7919H340.296L337.461 88.7433H331.79L328.955 94.7919V119.364L331.79 125.413H337.461L340.296 119.364V116.245H334.342V101.313H344.076V129.76L339.257 140.156Z" fill="currentColor"/>
<path d="M306.87 140.156H303.09V74H306.87V81.7497L318.589 106.322V74H322.369V140.156H318.589V130.705L306.87 106.133V140.156Z" fill="currentColor"/>
<path d="M300.28 140.156H281V73.9998H299.429V88.7431H284.781V98.8555H296.122V113.599H284.781V125.412H300.28V140.156Z" fill="currentColor"/>
<path d="M468 8C468 3.38462 471.385 0 476 0C480.615 0 484 3.38462 484 8C484 12.6154 480.615 16 476 16C471.385 16 468 12.3077 468 8ZM469.231 8C469.231 12 472 14.7692 476 14.7692C480 14.7692 482.769 12 482.769 8C482.769 4 480 1.23077 476 1.23077C472 1.23077 469.231 4 469.231 8ZM478.769 5.84615C478.769 4.61539 478.154 4.30769 476.923 4.30769H474.154L473.846 4.61539V7.07692L474.154 7.38462H476.923C478.154 7.38462 478.769 7.07692 478.769 5.84615ZM477.846 8.92308L480 12V12.6154L479.692 12.9231H479.385L478.769 12.6154L476.308 8.92308L475.692 8.61539H474.154L473.846 8.92308V12.6154L473.538 12.9231H472.615L472.308 12.6154V3.38462L472.615 3.07692H477.231C479.077 3.07692 480.308 4 480.308 5.84615C480.308 6.76923 480 8.30769 477.846 8.61539V8.92308Z" fill="currentColor"/>
</svg>
