<svg width="4884" height="660" viewBox="0 0 4884 660" fill="none" xmlns="http://www.w3.org/2000/svg">
<path d="M358.728 9.21924C558.683 9.21924 623.709 103.583 623.709 264.651C623.709 466.393 509.371 650.238 273.651 650.238H9.21309L0 641.019L110.004 17.8968L119.214 9.21924H358.728ZM265.523 513.031C389.073 513.031 456.267 421.38 456.267 254.346C456.267 190.353 437.844 146.426 332.176 146.426H261.189L251.976 155.645L190.744 503.812L199.415 513.031H265.523Z" fill="currentColor"/>
<path d="M990.021 540.69L971.596 531.471H761.345L742.922 540.69L706.075 641.019L697.404 650.238H587.4L578.189 641.019V522.252L779.77 17.8968L788.982 9.21924H944.502L953.714 17.8968L1154.75 522.252V641.019L1146.08 650.238H1036.08L1026.87 641.019L990.021 540.69ZM797.652 384.503L806.864 393.722H926.079L935.29 384.503L871.348 210.419H862.136L797.652 384.503Z" fill="currentColor"/>
<path d="M2255.86 650.238H2182.71L2164.29 641.019L1962.7 439.819H1954.03L1907.97 485.374V641.019L1898.76 650.238H1752.45L1743.24 641.019V17.8968L1752.45 9.21924H1898.76L1907.97 17.8968V265.736H1917.19L2164.29 17.8968L2182.71 9.21924H2246.65L2255.86 17.8968V137.207L2072.71 320.509V329.729L2265.07 522.252V641.019L2255.86 650.238Z" fill="currentColor"/>
<path d="M3167.31 0C3359.68 0 3488.11 118.768 3488.11 329.729C3488.11 540.69 3359.68 659.457 3167.31 659.457C2974.94 659.457 2847.06 540.69 2847.06 329.729C2847.06 118.768 2974.94 0 3167.31 0ZM3167.31 522.252C3268.1 522.252 3322.84 457.716 3322.84 329.729C3322.84 201.742 3268.1 137.207 3167.31 137.207C3066.52 137.207 3011.79 201.2 3011.79 329.729C3011.79 458.258 3066.52 522.252 3167.31 522.252Z" fill="currentColor"/>
<path d="M3824.61 0C4016.98 0 4145.41 118.768 4145.41 329.729C4145.41 540.69 4016.98 659.457 3824.61 659.457C3632.25 659.457 3504.36 540.69 3504.36 329.729C3504.36 118.768 3632.25 0 3824.61 0ZM3824.61 522.252C3925.41 522.252 3980.68 457.716 3980.68 329.729C3980.68 201.742 3925.41 137.207 3824.61 137.207C3723.82 137.207 3669.09 201.2 3669.09 329.729C3669.09 458.258 3723.82 522.252 3824.61 522.252Z" fill="currentColor"/>
<path d="M4874.79 650.238H4727.94L4718.72 641.019V348.168H4710.06L4590.84 641.019L4581.63 650.238H4462.41L4453.2 641.019L4334.53 348.168H4325.32V641.019L4316.1 650.238H4169.8L4160.58 641.019V17.8968L4169.8 9.21924H4343.74L4352.95 17.8968L4517.69 430.599H4526.9L4691.63 17.8968L4700.84 9.21924H4874.79L4884 17.8968V641.019L4874.79 650.238Z" fill="currentColor"/>
<path d="M1608.85 393.722V402.942L1709.64 522.252V641.019L1700.43 650.238H1627.28L1608.85 641.019L1426.24 421.38L1407.81 412.161H1343.33L1334.66 421.38V641.019L1325.45 650.238H1178.6L1169.39 641.019V17.8968L1178.6 9.21924H1499.39C1636.49 9.21924 1728.07 82.4326 1728.07 210.419C1728.07 311.29 1673.34 366.063 1608.85 393.722ZM1499.39 146.426H1343.33L1334.66 155.645V265.736L1343.33 274.955H1499.39C1535.7 274.955 1563.34 265.736 1563.34 210.419C1563.34 155.103 1535.7 146.426 1499.39 146.426Z" fill="currentColor"/>
<path d="M2719.17 393.722V402.942L2819.96 522.252V641.019L2810.75 650.238H2737.6L2719.17 641.019L2536.02 421.38L2518.13 412.161H2453.65L2444.44 421.38V641.019L2435.23 650.238H2288.92L2279.71 641.019V17.8968L2288.92 9.21924H2609.71C2746.81 9.21924 2838.39 82.4326 2838.39 210.419C2838.39 311.29 2783.66 366.063 2719.17 393.722ZM2609.71 146.426H2453.65L2444.44 155.645V265.736L2453.65 274.955H2609.71C2646.02 274.955 2673.65 265.736 2673.65 210.419C2673.65 155.103 2646.02 146.426 2609.71 146.426Z" fill="currentColor"/>
</svg>
